<?xml version="1.0" encoding="iso-8859-1"?>
<!-- Generator: Adobe Illustrator 19.0.0, SVG Export Plug-In . SVG Version: 6.00 Build 0)  -->
<svg version="1.1" id="Capa_1" xmlns="http://www.w3.org/2000/svg" xmlns:xlink="http://www.w3.org/1999/xlink" x="0px" y="0px"
	 viewBox="0 0 480 480" style="enable-background:new 0 0 480 480;" xml:space="preserve">
<path style="fill:#FFF69A;" d="M48,199.921h384v240H48V199.921z"/>
<path style="fill:#FDBD40;" d="M432,311.921c-48,0-48,32-96,32s-48-32-96-32s-48,32-96,32s-48-32-96-32v128h384V311.921z"/>
<path style="fill:#F6BF9B;" d="M355.672,471.921H124.328c-12.533,0.001-24.569-4.9-33.536-13.656L72,439.921h336l-18.792,18.344
	C380.241,467.021,368.205,471.922,355.672,471.921z"/>
<path style="fill:#E9686A;" d="M472,447.921H8c-4.418,0-8-3.582-8-8s3.582-8,8-8h464c4.418,0,8,3.582,8,8
	S476.418,447.921,472,447.921z"/>
<path style="fill:#F6BF9B;" d="M16,151.921v88c0,13.255,10.745,24,24,24h8v-64h32v47.144c-0.178,8.039,5.43,15.049,13.312,16.64
	c8.711,1.485,16.976-4.374,18.461-13.085c0.152-0.892,0.228-1.795,0.227-2.699v-48h32v23.144c-0.178,8.039,5.43,15.049,13.312,16.64
	c8.711,1.485,16.976-4.374,18.461-13.085c0.152-0.892,0.228-1.795,0.227-2.699v-24h48v47.144c-0.178,8.039,5.43,15.049,13.312,16.64
	c8.711,1.485,16.976-4.374,18.461-13.085c0.152-0.892,0.228-1.795,0.227-2.699v-48h48v23.144c-0.178,8.039,5.43,15.049,13.312,16.64
	c8.711,1.485,16.976-4.374,18.461-13.085c0.152-0.892,0.228-1.795,0.227-2.699v-24h32v47.144c-0.178,8.039,5.43,15.049,13.312,16.64
	c8.711,1.485,16.976-4.374,18.461-13.085c0.152-0.892,0.228-1.795,0.227-2.699v-48h32v64h8c13.255,0,24-10.745,24-24v-88H16z"/>
<path style="fill:#E9686A;" d="M256,151.921h-32v-80l32,16V151.921z"/>
<path style="fill:#FDBD40;" d="M246.248,2.921c-3.007-3.451-8.243-3.81-11.693-0.803c-0.286,0.249-0.554,0.517-0.803,0.803
	c-28.848,36.064-12.232,69.832,0.592,82.656c3.124,3.123,8.188,3.123,11.312,0C258.48,72.721,275.096,38.985,246.248,2.921z"/>
<path d="M472,431.921h-32v-160c17.673,0,32-14.327,32-32v-88c0-4.418-3.582-8-8-8H264v-56c0.001-3.032-1.712-5.805-4.424-7.16
	l-7.2-3.608c10.488-16.128,17.784-44.376-6.104-74.232c-3.007-3.451-8.243-3.81-11.693-0.803c-0.286,0.249-0.554,0.517-0.803,0.803
	c-15.046,16.699-19.802,40.269-12.408,61.496c-0.541,0.176-1.061,0.409-1.552,0.696c-2.368,1.453-3.812,4.03-3.816,6.808v72H16
	c-4.418,0-8,3.582-8,8v88c0,17.673,14.327,32,32,32c0,0,0,0,0,0v160H8c-4.418,0-8,3.582-8,8s3.582,8,8,8h60.736l16.472,16.072
	c10.442,10.241,24.494,15.963,39.12,15.928h231.344c14.626,0.035,28.678-5.687,39.12-15.928l16.472-16.072H472c4.418,0,8-3.582,8-8
	S476.418,431.921,472,431.921L472,431.921z M240,22.137c8.234,13.684,8.234,30.796,0,44.48
	C231.682,52.957,231.682,35.797,240,22.137z M232,84.865l16,8v51.056h-16V84.865z M383.616,452.545
	c-7.46,7.314-17.497,11.4-27.944,11.376H124.328c-10.447,0.024-20.484-4.062-27.944-11.376l-4.736-4.624h296.704L383.616,452.545z
	 M424,431.921H56V320.265c12.97,1.303,25.303,6.267,35.56,14.312c15.025,11.527,33.505,17.639,52.44,17.344
	c18.928,0.294,37.399-5.818,52.416-17.344c12.363-9.804,27.76-14.987,43.536-14.656c15.786-0.333,31.193,4.85,43.568,14.656
	c31.146,23.12,73.758,23.12,104.904,0c10.263-8.046,22.601-13.009,35.576-14.312L424,431.921z M424,304.273
	c-16.134,1.306-31.557,7.202-44.448,16.992c-25.765,19.54-61.387,19.54-87.152,0c-15.027-11.529-33.51-17.641-52.448-17.344
	c-18.93-0.295-37.405,5.817-52.424,17.344c-12.361,9.803-27.755,14.986-43.528,14.656c-15.783,0.333-31.188-4.85-43.56-14.656
	c-12.888-9.789-28.309-15.685-44.44-16.992v-96.352h16v39.144c-0.153,11.94,8.273,22.274,20,24.528
	c13.069,2.209,25.455-6.595,27.664-19.664c0.224-1.324,0.336-2.665,0.336-4.008v-40h16v15.144c-0.153,11.94,8.273,22.274,20,24.528
	c13.069,2.209,25.455-6.595,27.664-19.664c0.224-1.324,0.336-2.665,0.336-4.008v-16h32v39.144c-0.153,11.94,8.273,22.274,20,24.528
	c13.069,2.209,25.455-6.595,27.664-19.664c0.224-1.324,0.336-2.665,0.336-4.008v-40h32v15.144c-0.153,11.94,8.273,22.274,20,24.528
	c13.069,2.209,25.455-6.595,27.664-19.664c0.224-1.324,0.336-2.665,0.336-4.008v-16h16v39.144c-0.153,11.94,8.273,22.274,20,24.528
	c13.069,2.209,25.455-6.595,27.664-19.664c0.224-1.324,0.336-2.665,0.336-4.008v-40h16V304.273z M88,247.065v-39.144h16v40
	c-0.001,2.348-1.034,4.577-2.824,6.096c-1.815,1.548-4.226,2.205-6.576,1.792C90.606,254.826,87.851,251.175,88,247.065L88,247.065z
	 M152,223.065v-15.144h16v16c-0.001,2.348-1.034,4.577-2.824,6.096c-1.815,1.548-4.226,2.205-6.576,1.792
	C154.606,230.826,151.851,227.175,152,223.065L152,223.065z M232,247.065v-39.144h16v40c-0.001,2.348-1.034,4.577-2.824,6.096
	c-1.819,1.541-4.227,2.197-6.576,1.792C234.606,254.826,231.851,251.175,232,247.065L232,247.065z M312,223.065v-15.144h16v16
	c-0.001,2.348-1.034,4.577-2.824,6.096c-1.815,1.548-4.226,2.205-6.576,1.792C314.606,230.826,311.851,227.175,312,223.065z
	 M376,247.065v-39.144h16v40c-0.001,2.348-1.034,4.577-2.824,6.096c-1.815,1.548-4.226,2.205-6.576,1.792
	C378.606,254.826,375.851,251.175,376,247.065L376,247.065z M432,191.921H48c-4.418,0-8,3.582-8,8v56c-8.837,0-16-7.163-16-16v-80
	h432v80c0,8.837-7.163,16-16,16v-56C440,195.503,436.418,191.921,432,191.921L432,191.921z"/>
<g>
</g>
<g>
</g>
<g>
</g>
<g>
</g>
<g>
</g>
<g>
</g>
<g>
</g>
<g>
</g>
<g>
</g>
<g>
</g>
<g>
</g>
<g>
</g>
<g>
</g>
<g>
</g>
<g>
</g>
</svg>
