<?xml version="1.0" encoding="iso-8859-1"?>
<!-- Generator: Adobe Illustrator 19.0.0, SVG Export Plug-In . SVG Version: 6.00 Build 0)  -->
<svg version="1.1" id="Layer_1" xmlns="http://www.w3.org/2000/svg" xmlns:xlink="http://www.w3.org/1999/xlink" x="0px" y="0px"
	 viewBox="0 0 512 512" style="enable-background:new 0 0 512 512;" xml:space="preserve">
<path style="fill:#F7CE4D;" d="M33.604,382.166H0V92.27c0-17.345,14.054-31.399,31.389-31.399h354.419
	c12.664,0,23.521,9.038,25.819,21.483l19.54,105.472l55.599,19.404C501.875,212.506,512,226.759,512,242.756v139.41h-36.979"/>
<g>
	<circle style="fill:#4D4D4D;" cx="102.557" cy="382.169" r="68.96"/>
	<circle style="fill:#4D4D4D;" cx="406.068" cy="382.169" r="68.96"/>
</g>
<g>
	<circle style="fill:#B3B3B3;" cx="102.557" cy="382.169" r="39.204"/>
	<circle style="fill:#B3B3B3;" cx="406.068" cy="382.169" r="39.204"/>
</g>
<polygon style="fill:#9ACAEF;" points="401.408,187.826 307.347,187.826 307.347,90.128 383.321,90.128 "/>
<g>
	<polygon style="fill:#EF5959;" points="260.739,190.958 181.444,111.664 181.444,153.344 60.764,153.344 60.764,228.572 
		181.444,228.572 181.444,270.253 	"/>
	<ellipse style="fill:#EF5959;" cx="477.602" cy="280.062" rx="15.672" ry="25.076"/>
</g>
<g>
</g>
<g>
</g>
<g>
</g>
<g>
</g>
<g>
</g>
<g>
</g>
<g>
</g>
<g>
</g>
<g>
</g>
<g>
</g>
<g>
</g>
<g>
</g>
<g>
</g>
<g>
</g>
<g>
</g>
</svg>
