<?xml version="1.0" encoding="iso-8859-1"?>
<!-- Generator: Adobe Illustrator 19.0.0, SVG Export Plug-In . SVG Version: 6.00 Build 0)  -->
<svg version="1.1" id="Capa_1" xmlns="http://www.w3.org/2000/svg" xmlns:xlink="http://www.w3.org/1999/xlink" x="0px" y="0px"
	 viewBox="0 0 512 512" style="enable-background:new 0 0 512 512;" xml:space="preserve">
<g>
	<path style="fill:#FE4C72;" d="M111.4,254.934c-8.284,0-15-6.716-15-15v-48.2c0-8.284,6.716-15,15-15s15,6.716,15,15v48.2
		C126.4,248.218,119.685,254.934,111.4,254.934z"/>
	<path style="fill:#FE4C72;" d="M15,254.934c-8.284,0-15-6.716-15-15v-48.2c0-8.284,6.716-15,15-15s15,6.716,15,15v48.2
		C30,248.218,23.284,254.934,15,254.934z"/>
	<path style="fill:#FE4C72;" d="M87.301,182.633H39.102c-8.284,0-15-6.716-15-15s6.716-15,15-15h48.199c8.284,0,15,6.716,15,15
		C102.301,175.917,95.585,182.633,87.301,182.633z"/>
	<path style="fill:#FE4C72;" d="M111.4,335.267c-8.284,0-15-6.716-15-15v-48.2c0-8.284,6.716-15,15-15s15,6.716,15,15v48.2
		C126.4,328.551,119.685,335.267,111.4,335.267z"/>
	<path style="fill:#FE4C72;" d="M15,335.267c-8.284,0-15-6.716-15-15v-48.2c0-8.284,6.716-15,15-15s15,6.716,15,15v48.2
		C30,328.551,23.284,335.267,15,335.267z"/>
	<path style="fill:#FE4C72;" d="M87.301,359.367H39.102c-8.284,0-15-6.716-15-15s6.716-15,15-15h48.199c8.284,0,15,6.716,15,15
		S95.585,359.367,87.301,359.367z"/>
</g>
<g>
	<path style="fill:#CF1F62;" d="M497,254.934c-8.284,0-15-6.716-15-15v-48.2c0-8.284,6.716-15,15-15s15,6.716,15,15v48.2
		C512,248.218,505.284,254.934,497,254.934z"/>
	<path style="fill:#CF1F62;" d="M400.602,254.934c-8.284,0-15-6.716-15-15v-48.2c0-8.284,6.716-15,15-15s15,6.716,15,15v48.2
		C415.602,248.218,408.886,254.934,400.602,254.934z"/>
	<path style="fill:#CF1F62;" d="M472.9,182.633h-48.199c-8.284,0-15-6.716-15-15s6.716-15,15-15H472.9c8.284,0,15,6.716,15,15
		C487.9,175.917,481.185,182.633,472.9,182.633z"/>
	<path style="fill:#CF1F62;" d="M497,335.267c-8.284,0-15-6.716-15-15v-48.2c0-8.284,6.716-15,15-15s15,6.716,15,15v48.2
		C512,328.551,505.284,335.267,497,335.267z"/>
	<path style="fill:#CF1F62;" d="M400.602,335.267c-8.284,0-15-6.716-15-15v-48.2c0-8.284,6.716-15,15-15s15,6.716,15,15v48.2
		C415.602,328.551,408.886,335.267,400.602,335.267z"/>
	<path style="fill:#CF1F62;" d="M472.9,359.367h-48.199c-8.284,0-15-6.716-15-15s6.716-15,15-15H472.9c8.284,0,15,6.716,15,15
		S481.185,359.367,472.9,359.367z"/>
	<path style="fill:#CF1F62;" d="M336.334,254.934c-8.284,0-15-6.716-15-15v-48.2c0-8.284,6.716-15,15-15s15,6.716,15,15v48.2
		C351.334,248.218,344.618,254.934,336.334,254.934z"/>
	<path style="fill:#CF1F62;" d="M239.934,254.934c-8.284,0-15-6.716-15-15v-48.2c0-8.284,6.716-15,15-15s15,6.716,15,15v48.2
		C254.934,248.218,248.218,254.934,239.934,254.934z"/>
	<path style="fill:#CF1F62;" d="M312.234,182.633h-48.201c-8.284,0-15-6.716-15-15s6.716-15,15-15h48.201c8.284,0,15,6.716,15,15
		C327.234,175.917,320.519,182.633,312.234,182.633z"/>
	<path style="fill:#CF1F62;" d="M336.334,335.267c-8.284,0-15-6.716-15-15v-48.2c0-8.284,6.716-15,15-15s15,6.716,15,15v48.2
		C351.334,328.551,344.618,335.267,336.334,335.267z"/>
	<path style="fill:#CF1F62;" d="M239.934,335.267c-8.284,0-15-6.716-15-15v-48.2c0-8.284,6.716-15,15-15s15,6.716,15,15v48.2
		C254.934,328.551,248.218,335.267,239.934,335.267z"/>
	<path style="fill:#CF1F62;" d="M312.234,359.367h-48.201c-8.284,0-15-6.716-15-15s6.716-15,15-15h48.201c8.284,0,15,6.716,15,15
		S320.519,359.367,312.234,359.367z"/>
</g>
<g>
	<path style="fill:#FE4C72;" d="M175.666,230.828c-3.95,0-7.811-1.6-10.601-4.39c-2.8-2.79-4.399-6.66-4.399-10.61
		c0-3.94,1.6-7.811,4.399-10.6c2.79-2.79,6.65-4.391,10.601-4.391c3.949,0,7.819,1.601,10.609,4.391
		c2.79,2.789,4.391,6.659,4.391,10.6c0,3.95-1.601,7.82-4.391,10.61C183.485,229.229,179.615,230.828,175.666,230.828z"/>
	<path style="fill:#FE4C72;" d="M175.666,311.168c-3.94,0-7.811-1.6-10.61-4.39c-2.79-2.8-4.39-6.67-4.39-10.61
		c0-3.95,1.6-7.82,4.39-10.61c2.8-2.79,6.67-4.39,10.61-4.39c3.949,0,7.819,1.6,10.609,4.39s4.391,6.66,4.391,10.61
		c0,3.94-1.601,7.81-4.391,10.61C183.485,309.568,179.615,311.168,175.666,311.168z"/>
</g>
<g>
</g>
<g>
</g>
<g>
</g>
<g>
</g>
<g>
</g>
<g>
</g>
<g>
</g>
<g>
</g>
<g>
</g>
<g>
</g>
<g>
</g>
<g>
</g>
<g>
</g>
<g>
</g>
<g>
</g>
</svg>
